<?xml version="1.0" encoding="UTF-8"?>
<svg xmlns="http://www.w3.org/2000/svg" xmlns:xlink="http://www.w3.org/1999/xlink" width="584" height="191.55" viewBox="0 0 584 191.55">
<path fill-rule="evenodd" fill="#ffffff" d="M 334.789062 96.386719 C 334.800781 61.859375 307.257812 34.445312 272.664062 34.558594 C 238.535156 34.667969 211.011719 62.320312 211.007812 96.503906 C 211 130.792969 238.351562 158.058594 272.785156 158.089844 C 307.800781 158.121094 334.78125 131.273438 334.789062 96.386719 M 272.699219 14.078125 C 319.066406 14.0625 355.601562 50.597656 355.53125 96.914062 C 355.464844 142.421875 318.617188 178.882812 272.757812 178.828125 C 227.105469 178.777344 190.28125 141.996094 190.308594 96.464844 C 190.332031 50.972656 227.210938 14.09375 272.699219 14.078125 "/>
<path fill-rule="evenodd" fill="#ffffff" d="M 17.511719 12.273438 C 40.492188 35.015625 63.335938 57.625 86.238281 80.292969 C 81.835938 84.601562 77.535156 88.8125 73.011719 93.238281 C 61.398438 81.699219 49.582031 69.960938 36.953125 57.417969 L 36.953125 174.546875 L 17.511719 174.546875 Z M 17.511719 12.273438 "/>
<path fill-rule="evenodd" fill="#ffffff" d="M 110.070312 106.789062 C 113.332031 103.574219 117.460938 99.5 121.675781 95.339844 C 133.464844 107.042969 145.273438 118.773438 157.960938 131.371094 L 157.960938 14.3125 L 177.832031 14.3125 L 177.832031 175.253906 C 155.675781 152.867188 133.050781 130.007812 110.070312 106.789062 "/>
<path fill-rule="evenodd" fill="#ffffff" d="M 522.183594 34.296875 L 405.421875 34.296875 L 405.421875 14.503906 L 566.488281 14.503906 C 544.179688 36.796875 521.402344 59.558594 498.320312 82.621094 C 495.023438 79.070312 490.992188 74.722656 486.167969 69.519531 C 497.707031 58.234375 509.628906 46.574219 522.183594 34.296875 "/>
<path fill-rule="evenodd" fill="#ffffff" d="M 404.539062 174.679688 C 426.695312 151.847656 449.078125 128.777344 471.976562 105.179688 C 476.433594 110.246094 480.367188 114.722656 484.730469 119.683594 C 473.34375 130.898438 461.328125 142.734375 448.332031 155.539062 L 565.804688 155.539062 L 565.804688 174.679688 Z M 404.539062 174.679688 "/>
<path fill-rule="evenodd" fill="#ffffff" d="M 391.21875 174.554688 L 370.609375 174.554688 L 370.609375 14.558594 L 391.21875 14.558594 Z M 391.21875 174.554688 "/>
<path fill-rule="evenodd" fill="#ffffff" d="M 284.675781 96.941406 C 284.632812 103.660156 278.992188 109.199219 272.164062 109.226562 C 265.429688 109.257812 259.832031 103.597656 259.867188 96.796875 C 259.902344 90.195312 265.289062 84.933594 272.050781 84.902344 C 279.097656 84.863281 284.714844 90.226562 284.675781 96.941406 "/>
</svg>
